<svg xmlns="http://www.w3.org/2000/svg" viewBox="0 0 192 192">
  <rect width="192" height="192" rx="40" fill="#0d1b2a"/>
  <rect x="44" y="24" width="104" height="148" rx="12" fill="white"/>
  <rect x="44" y="24" width="104" height="52" rx="12" fill="white"/>
  <rect x="44" y="64" width="104" height="12" fill="#e0e0e0"/>
  <rect x="44" y="76" width="104" height="96" rx="0" fill="white"/>
  <rect x="44" y="160" width="104" height="12" rx="12" fill="white"/>
  <rect x="112" y="38" width="6" height="24" rx="3" fill="#b0bec5"/>
  <rect x="112" y="92" width="6" height="40" rx="3" fill="#b0bec5"/>
  <rect x="52" y="74" width="88" height="3" rx="1.5" fill="#e0e0e0"/>
  <rect x="56" y="48" width="48" height="2" rx="1" fill="#e8f4f8"/>
  <rect x="56" y="104" width="72" height="2" rx="1" fill="#e0e0e0"/>
  <rect x="56" y="128" width="72" height="2" rx="1" fill="#e0e0e0"/>
  <rect x="56" y="150" width="72" height="2" rx="1" fill="#e0e0e0"/>
</svg>
